# xmcd
#
# Track frame offsets:
#	150
#	43002
#	79777
#	126189
#	145088
#	159281
#	187340
#	217495
#	247046
#	263306
#	283012
#	296707
#	314076
#
# Disc length: 4304 seconds
#
# Revision: 0
# Processed by: cddbd v1.5.2PL0 Copyright (c) Steve Scherf et al.
# Submitted via: audiograbber 1.83.01
#
DISCID=d010ce0d
DTITLE=The Red Devils - Live @ Moulin Blues Ospel
DYEAR=1993
DGENRE=Blues
TTITLE0=She's Dynamite
TTITLE1=Time To Cry
TTITLE2=Dedication
TTITLE3=Instrumental
TTITLE4=Going Down In Louisiana
TTITLE5=She's Dangerous
TTITLE6=Black Water Roll
TTITLE7=Checkin' Up On My Baby
TTITLE8=So Low Down
TTITLE9=In The Night Time
TTITLE10=Close To You
TTITLE11=Smoke Stack Lightning
TTITLE12=Boogie Disease
EXTD=
EXTT0=
EXTT1=
EXTT2=
EXTT3=
EXTT4=
EXTT5=
EXTT6=
EXTT7=
EXTT8=
EXTT9=
EXTT10=
EXTT11=
EXTT12=
PLAYORDER=
